<svg xmlns="http://www.w3.org/2000/svg" viewBox="0 0 900 900"><defs><radialGradient id="g"><stop stop-color="#f3c758"/><stop offset=".55" stop-color="#b66e13"/><stop offset="1" stop-color="#4d2107"/></radialGradient></defs><circle cx="450" cy="450" r="420" fill="url(#g)" stroke="#5c2708" stroke-width="20"/><circle cx="450" cy="450" r="320" fill="#2f1205" stroke="#f0bd45" stroke-width="14"/><circle cx="450" cy="450" r="155" fill="url(#g)" stroke="#f6d56f" stroke-width="12"/><g stroke="#f4c65b" stroke-width="12" fill="none"><path d="M450 130V770" transform="rotate(0 450 450)"/><path d="M450 130V770" transform="rotate(15 450 450)"/><path d="M450 130V770" transform="rotate(30 450 450)"/><path d="M450 130V770" transform="rotate(45 450 450)"/><path d="M450 130V770" transform="rotate(60 450 450)"/><path d="M450 130V770" transform="rotate(75 450 450)"/><path d="M450 130V770" transform="rotate(90 450 450)"/><path d="M450 130V770" transform="rotate(105 450 450)"/><path d="M450 130V770" transform="rotate(120 450 450)"/><path d="M450 130V770" transform="rotate(135 450 450)"/><path d="M450 130V770" transform="rotate(150 450 450)"/><path d="M450 130V770" transform="rotate(165 450 450)"/></g><circle cx="450" cy="450" r="75" fill="#341305" stroke="#ffd76c" stroke-width="12"/><path d="M450 390v120M390 450h120M408 408l84 84M492 408l-84 84" stroke="#ffd76c" stroke-width="16"/></svg>
